<?xml version="1.0" encoding="iso-8859-1"?>
<!-- Generator: Adobe Illustrator 16.0.0, SVG Export Plug-In . SVG Version: 6.00 Build 0)  -->
<!DOCTYPE svg PUBLIC "-//W3C//DTD SVG 1.1//EN" "http://www.w3.org/Graphics/SVG/1.1/DTD/svg11.dtd">
<svg version="1.1" id="Capa_1" xmlns="http://www.w3.org/2000/svg" xmlns:xlink="http://www.w3.org/1999/xlink" x="0px" y="0px"
	 width="38.086px" height="38.086px" viewBox="0 0 38.086 38.086" style="enable-background:new 0 0 38.086 38.086;"
	 xml:space="preserve">
<g>
	<path d="M33.453,13.443l-4.086-4.157V1.5c0-0.828-0.672-1.5-1.5-1.5H5.703c-0.828,0-1.5,0.672-1.5,1.5v32.162
		c0,0.828,0.672,1.5,1.5,1.5h3.014v1.424c0,0.828,0.673,1.5,1.5,1.5h22.166c0.828,0,1.5-0.672,1.5-1.5v-22.09
		C33.883,14.104,33.729,13.727,33.453,13.443z M23.623,7.721l6.367,6.48h-6.367V7.721z M11.717,35.086V5.924h8.904v9.777
		c0,0.828,0.672,1.5,1.5,1.5h8.762v17.885H11.717L11.717,35.086z"/>
</g>
<g>
</g>
<g>
</g>
<g>
</g>
<g>
</g>
<g>
</g>
<g>
</g>
<g>
</g>
<g>
</g>
<g>
</g>
<g>
</g>
<g>
</g>
<g>
</g>
<g>
</g>
<g>
</g>
<g>
</g>
</svg>
